<svg width="53" height="53" viewBox="0 0 53 53" fill="none" xmlns="http://www.w3.org/2000/svg">
<rect width="53" height="53" rx="26.5" fill="#323232"/>
<path fill-rule="evenodd" clip-rule="evenodd" d="M12.2455 9.87082C12.2455 9.38988 12.6397 9 13.126 9H19.3002C19.5433 9 19.7756 9.09946 19.9421 9.27479L25.3581 14.3728C25.7058 14.7392 26.2941 14.7392 26.6419 14.3728L32.0579 9.27479C32.2243 9.09946 32.4566 9 32.6998 9H38.874C39.3602 9 39.7544 9.38988 39.7544 9.87082V15.1435C39.7544 15.6244 39.3602 16.0143 38.874 16.0143H35.8404C35.5999 16.0143 35.3699 16.1116 35.2038 16.2835L31.8643 19.7404C31.5393 20.0769 31.5392 20.6066 31.864 20.9432L40.7242 30.1255C40.8805 30.2875 40.9677 30.5028 40.9677 30.7267V37.1292C40.9677 37.6101 40.5735 38 40.0873 38H34.4124C33.9262 38 33.532 37.6101 33.532 37.1292V33.7761C33.532 33.5505 33.4435 33.3338 33.2851 33.1715L26.6336 26.3531C26.2874 25.9982 25.7126 25.9982 25.3664 26.3531L18.7148 33.1715C18.5564 33.3338 18.4679 33.5505 18.4679 33.7761V37.1292C18.4679 37.6101 18.0738 38 17.5875 38H11.9127C11.4264 38 11.0322 37.6101 11.0322 37.1292V30.7267C11.0322 30.5028 11.1194 30.2875 11.2757 30.1255L20.1359 20.9432C20.4608 20.6066 20.4606 20.0769 20.1356 19.7404L16.7962 16.2835C16.63 16.1116 16.4 16.0143 16.1596 16.0143H13.126C12.6397 16.0143 12.2455 15.6244 12.2455 15.1435V9.87082ZM25.3664 24.8564C25.7126 25.2113 26.2874 25.2113 26.6336 24.8564L30.5054 20.8875C30.8386 20.546 30.8339 20.0035 30.495 19.6677L26.6231 15.831C26.2792 15.4902 25.7208 15.4902 25.3768 15.831L21.505 19.6677C21.166 20.0035 21.1614 20.546 21.4945 20.8875L25.3664 24.8564Z" fill="#41BFB3"/>
</svg>
