<svg width="89" height="26" viewBox="0 0 89 26" fill="none" xmlns="http://www.w3.org/2000/svg">
<path fill-rule="evenodd" clip-rule="evenodd" d="M1.06609 0.988188C1.06609 0.567735 1.41246 0.226889 1.83973 0.226889H7.26486C7.47851 0.226889 7.68265 0.313837 7.82889 0.46712L12.5878 4.92399C12.8934 5.2443 13.4103 5.2443 13.7159 4.92399L18.4748 0.46712C18.621 0.313837 18.8252 0.226889 19.0388 0.226889H24.4639C24.8912 0.226889 25.2376 0.567735 25.2376 0.988188V5.59772C25.2376 6.01818 24.8912 6.35902 24.4639 6.35902H21.7984C21.5871 6.35902 21.385 6.44407 21.239 6.5944L18.3047 9.61654C18.0191 9.91068 18.019 10.3738 18.3044 10.6681L26.0897 18.6955C26.227 18.8371 26.3037 19.0253 26.3037 19.2211V24.8184C26.3037 25.2388 25.9573 25.5796 25.53 25.5796H20.5437C20.1164 25.5796 19.7701 25.2388 19.7701 24.8183V21.887C19.7701 21.6898 19.6923 21.5003 19.5532 21.3584L13.7086 15.3976C13.4044 15.0873 12.8993 15.0873 12.5951 15.3976L6.75051 21.3584C6.61136 21.5003 6.53361 21.6898 6.53361 21.887V24.8183C6.53361 25.2388 6.18724 25.5796 5.75997 25.5796H0.773637C0.346369 25.5796 0 25.2388 0 24.8184V19.2211C0 19.0253 0.0766298 18.8371 0.213973 18.6955L7.99924 10.6681C8.28465 10.3738 8.28452 9.91068 7.99894 9.61654L5.06464 6.5944C4.91867 6.44407 4.71657 6.35902 4.50527 6.35902H1.83973C1.41246 6.35902 1.06609 6.01818 1.06609 5.59772V0.988188ZM12.5951 14.0891C12.8993 14.3994 13.4044 14.3994 13.7086 14.0891L17.1107 10.6193C17.4034 10.3208 17.3993 9.84655 17.1015 9.55292L13.6994 6.19881C13.3971 5.90083 12.9065 5.90083 12.6043 6.19881L9.20216 9.55292C8.90433 9.84655 8.90024 10.3208 9.19298 10.6193L12.5951 14.0891ZM82.5007 18.9411C82.5007 19.782 83.1934 20.4637 84.048 20.4637H87.4527C88.3073 20.4637 89 21.1454 89 21.9863V24.057C89 24.898 88.3073 25.5796 87.4527 25.5796H77.3637C76.5092 25.5796 75.8164 24.898 75.8164 24.057V1.5226C75.8164 0.681691 76.5092 0 77.3637 0H80.9534C81.8079 0 82.5007 0.68169 82.5007 1.5226V18.9411ZM53.3547 25.5796C54.2093 25.5796 54.902 24.898 54.902 24.057V6.63853C54.902 5.79762 55.5947 5.11593 56.4493 5.11593H56.9873H61.153H63.6239C65.1093 5.11593 65.852 5.84678 65.852 7.30847V10.5973C65.852 12.059 65.1093 12.7898 63.6239 12.7898H61.0759C59.8606 12.7898 59.1197 14.1053 59.7638 15.1194L61.5722 17.9667L63.0675 20.9096L65.226 24.7884C65.4975 25.2763 66.0178 25.5796 66.5831 25.5796H70.2488C71.4352 25.5796 72.1802 24.3199 71.5941 23.3049L69.2722 19.2834C68.7664 18.4075 69.2796 17.3156 70.1268 16.7501C70.6932 16.3721 71.1498 15.8924 71.4965 15.3112C72.1896 14.1906 72.5362 12.6193 72.5362 10.5973V7.30847C72.5362 4.75051 71.9421 2.89903 70.7538 1.75403C69.5902 0.584677 67.7087 0 65.1093 0H61.153H51.0601H43.9425H41.9668H36.7632C34.1638 0 32.2699 0.584677 31.0816 1.75403C29.918 2.89903 29.3363 4.75051 29.3363 7.30847V19.002C29.3363 21.3895 29.9057 23.1435 31.0445 24.2641C32.1832 25.3848 33.9657 25.9451 36.3918 25.9451C37.4659 25.9451 38.0963 25.9652 38.5933 25.9811C39.6181 26.0139 40.0756 26.0285 42.6868 25.8108C43.4849 25.7442 44.0973 25.0853 44.0973 24.2971V20.8291C43.7631 20.8413 42.8767 20.8352 41.9903 20.8291C41.104 20.823 40.2176 20.817 39.8834 20.8291C39.538 20.8417 39.6154 20.8348 39.6855 20.8285C39.7511 20.8227 39.8103 20.8174 39.5111 20.8291H37.8029C37.2831 20.8291 36.8498 20.6708 36.5032 20.3541C36.1814 20.013 36.0205 19.5623 36.0205 19.002V7.30847C36.0205 5.84678 36.7632 5.11593 38.2486 5.11593H41.9668H43.9425H46.6705C47.525 5.11593 48.2178 5.79762 48.2178 6.63853V24.057C48.2178 24.898 48.9105 25.5796 49.7651 25.5796H53.3547Z" fill="#41BFB3"/>
</svg>
