<svg width="30" height="36" viewBox="0 0 30 36" fill="none" xmlns="http://www.w3.org/2000/svg">
<path d="M21.7076 26.8269V15.75C21.7076 13.3846 21.0575 11.4231 19.7573 9.86539C18.4571 8.25 16.7047 7.44231 14.5 7.44231C12.2953 7.44231 10.5429 8.25 9.24269 9.86539C7.9425 11.4231 7.2924 13.3846 7.2924 15.75V26.8269H21.7076ZM25.3538 24.9231L29 28.6442V30.4615H0V28.6442L3.6462 24.9231V15.75C3.6462 12.8654 4.35283 10.3558 5.76608 8.22115C7.23587 6.08654 9.24269 4.70192 11.7866 4.06731V2.76923C11.7866 2.01923 12.0409 1.38462 12.5497 0.865385C13.0585 0.288462 13.7086 0 14.5 0C15.2914 0 15.9415 0.288462 16.4503 0.865385C16.9591 1.38462 17.2135 2.01923 17.2135 2.76923V4.06731C19.7573 4.70192 21.7359 6.08654 23.1491 8.22115C24.6189 10.3558 25.3538 12.8654 25.3538 15.75V24.9231ZM17.0439 34.9615C16.309 35.6538 15.461 36 14.5 36C13.539 36 12.691 35.6538 11.9561 34.9615C11.2212 34.2115 10.8538 33.3462 10.8538 32.3654H18.1462C18.1462 33.3462 17.7788 34.2115 17.0439 34.9615Z" fill="white"/>
<circle cx="25" cy="7" r="5" fill="#41BFB3"/>
</svg>
