<svg width="164" height="164" viewBox="0 0 164 164" fill="none" xmlns="http://www.w3.org/2000/svg">
<path d="M92.7529 119.698H70.6087C68.2951 119.698 66.3514 117.958 66.0959 115.659L59.5369 56.628C59.238 53.9381 61.3435 51.5857 64.0499 51.5857H99.3113C102.018 51.5857 104.124 53.9381 103.825 56.628L97.2657 115.659C97.0099 117.958 95.0664 119.698 92.7529 119.698Z" stroke="#41BFB3" stroke-width="11.3521" stroke-linecap="round"/>
<path d="M24.9202 44.0176C35.3694 44.0176 43.8403 35.5467 43.8403 25.0974C43.8403 14.6481 35.3694 6.17725 24.9202 6.17725C14.4709 6.17725 6 14.6481 6 25.0974C6 35.5467 14.4709 44.0176 24.9202 44.0176Z" stroke="#41BFB3" stroke-width="11.3521" stroke-miterlimit="1.5" stroke-linecap="round" stroke-linejoin="round"/>
<path d="M24.9202 25.0974L58.9764 51.5856" stroke="#41BFB3" stroke-width="11.3521" stroke-linecap="round" stroke-linejoin="round"/>
<path d="M24.9202 138.618L62.7614 108.346" stroke="#41BFB3" stroke-width="11.3521" stroke-linecap="round" stroke-linejoin="round"/>
<path d="M138.441 25.0974L104.385 51.5856" stroke="#41BFB3" stroke-width="11.3521" stroke-linecap="round" stroke-linejoin="round"/>
<path d="M100.601 108.346L110.061 115.914" stroke="#41BFB3" stroke-width="11.3521" stroke-linecap="round" stroke-linejoin="round"/>
<path d="M24.9202 157.539C35.3694 157.539 43.8403 149.068 43.8403 138.618C43.8403 128.169 35.3694 119.698 24.9202 119.698C14.4709 119.698 6 128.169 6 138.618C6 149.068 14.4709 157.539 24.9202 157.539Z" stroke="#41BFB3" stroke-width="11.3521" stroke-miterlimit="1.5" stroke-linecap="round" stroke-linejoin="round"/>
<path d="M138.441 44.0176C148.89 44.0176 157.361 35.5467 157.361 25.0974C157.361 14.6481 148.89 6.17725 138.441 6.17725C127.992 6.17725 119.521 14.6481 119.521 25.0974C119.521 35.5467 127.992 44.0176 138.441 44.0176Z" stroke="#41BFB3" stroke-width="11.3521" stroke-miterlimit="1.5" stroke-linecap="round" stroke-linejoin="round"/>
<path d="M138.441 157.538V112.13M138.441 112.13L119.521 131.05M138.441 112.13L157.361 131.05" stroke="#41BFB3" stroke-width="11.3521" stroke-linecap="round" stroke-linejoin="round"/>
</svg>
