<svg width="191" height="191" viewBox="0 0 191 191" fill="none" xmlns="http://www.w3.org/2000/svg">
<path d="M111.206 111.383H79.4331V79.6101" stroke="#41BFB3" stroke-width="12.6134" stroke-linecap="round" stroke-linejoin="round"/>
<path d="M79.4328 79.6101L51.6313 51.8086" stroke="#41BFB3" stroke-width="12.6134" stroke-linecap="round" stroke-linejoin="round"/>
<path d="M79.0906 47.4399C78.1661 41.6331 75.4259 36.2683 71.2632 32.1156C67.1004 27.9628 61.7291 25.2355 55.92 24.325M31.9313 32.1809C28.289 35.8328 25.7343 40.4259 24.5531 45.4467C23.3719 50.4674 23.6106 55.7178 25.2427 60.6106C26.8747 65.5034 29.8357 69.8458 33.7945 73.1521C37.7532 76.4583 42.5537 78.5981 47.659 79.3322" stroke="#41BFB3" stroke-width="12.6134" stroke-linecap="round" stroke-linejoin="round"/>
<path d="M111.206 79.6101L139.007 51.8086" stroke="#41BFB3" stroke-width="12.6134" stroke-linecap="round" stroke-linejoin="round"/>
<path d="M142.981 79.3321C148.086 78.5921 152.884 76.4463 156.84 73.1348C160.795 69.8233 163.751 65.4766 165.377 60.581C167.003 55.6854 167.235 50.434 166.046 45.4142C164.858 40.3944 162.297 35.8042 158.649 32.157C155.001 28.5098 150.41 25.9496 145.39 24.7626C140.369 23.5756 135.118 23.8088 130.223 25.436C125.328 27.0631 120.982 30.0202 117.671 33.9763C114.361 37.9324 112.216 42.7316 111.478 47.8369" stroke="#41BFB3" stroke-width="12.6134" stroke-linecap="round" stroke-linejoin="round"/>
<path d="M111.206 111.383L139.007 139.185" stroke="#41BFB3" stroke-width="12.6134" stroke-linecap="round" stroke-linejoin="round"/>
<path d="M111.485 143.156C112.219 148.262 114.359 153.062 117.665 157.021C120.972 160.98 125.314 163.941 130.207 165.573C135.099 167.205 140.35 167.444 145.371 166.262C150.391 165.081 154.985 162.526 158.636 158.884M166.476 134.848C165.556 129.035 162.817 123.665 158.652 119.507C154.487 115.349 149.112 112.619 143.298 111.709" stroke="#41BFB3" stroke-width="12.6134" stroke-linecap="round" stroke-linejoin="round"/>
<path d="M79.4328 111.383L51.6313 139.185" stroke="#41BFB3" stroke-width="12.6134" stroke-linecap="round" stroke-linejoin="round"/>
<path d="M47.6589 111.66C42.5537 112.4 37.7551 114.546 33.7998 117.858C29.8445 121.169 26.8885 125.516 25.2626 130.411C23.6367 135.307 23.4048 140.558 24.5931 145.578C25.7813 150.598 28.3427 155.188 31.9908 158.835C35.6389 162.483 40.2298 165.043 45.2499 166.23C50.27 167.417 55.5214 167.184 60.4165 165.556C65.3117 163.929 69.6576 160.972 72.9681 157.016C76.2787 153.06 78.4232 148.261 79.1619 143.156" stroke="#41BFB3" stroke-width="12.6134" stroke-linecap="round" stroke-linejoin="round"/>
<path d="M23.8296 24.0071L166.809 166.986" stroke="#41BFB3" stroke-width="12.6134" stroke-linecap="round" stroke-linejoin="round"/>
</svg>
