<svg width="163" height="164" viewBox="0 0 163 164" fill="none" xmlns="http://www.w3.org/2000/svg">
<path d="M91.7132 118.338H69.8344C67.5486 118.338 65.6281 116.619 65.3757 114.347L58.8953 56.0234C58.6 53.3658 60.6803 51.0415 63.3543 51.0415H98.1931C100.867 51.0415 102.948 53.3658 102.653 56.0234L96.1719 114.347C95.9192 116.619 93.999 118.338 91.7132 118.338Z" stroke="#41BFB3" stroke-width="11.216" stroke-linecap="round"/>
<path d="M24.6934 43.5641C35.0175 43.5641 43.3868 35.1947 43.3868 24.8706C43.3868 14.5466 35.0175 6.17725 24.6934 6.17725C14.3693 6.17725 6 14.5466 6 24.8706C6 35.1947 14.3693 43.5641 24.6934 43.5641Z" stroke="#41BFB3" stroke-width="11.216" stroke-miterlimit="1.5" stroke-linecap="round" stroke-linejoin="round"/>
<path d="M24.6934 24.8706L58.3415 51.0414" stroke="#41BFB3" stroke-width="11.216" stroke-linecap="round" stroke-linejoin="round"/>
<path d="M24.6934 137.031L62.0811 107.122" stroke="#41BFB3" stroke-width="11.216" stroke-linecap="round" stroke-linejoin="round"/>
<path d="M136.854 24.8706L103.206 51.0414" stroke="#41BFB3" stroke-width="11.216" stroke-linecap="round" stroke-linejoin="round"/>
<path d="M99.467 107.122L108.814 114.599" stroke="#41BFB3" stroke-width="11.216" stroke-linecap="round" stroke-linejoin="round"/>
<path d="M24.6934 155.724C35.0175 155.724 43.3868 147.355 43.3868 137.031C43.3868 126.707 35.0175 118.338 24.6934 118.338C14.3693 118.338 6 126.707 6 137.031C6 147.355 14.3693 155.724 24.6934 155.724Z" stroke="#41BFB3" stroke-width="11.216" stroke-miterlimit="1.5" stroke-linecap="round" stroke-linejoin="round"/>
<path d="M136.854 43.5641C147.178 43.5641 155.547 35.1947 155.547 24.8706C155.547 14.5466 147.178 6.17725 136.854 6.17725C126.53 6.17725 118.16 14.5466 118.16 24.8706C118.16 35.1947 126.53 43.5641 136.854 43.5641Z" stroke="#41BFB3" stroke-width="11.216" stroke-miterlimit="1.5" stroke-linecap="round" stroke-linejoin="round"/>
<path d="M125.638 157.538L141.499 141.677M141.499 141.677L157.361 125.815M141.499 141.677L125.638 125.815M141.499 141.677L157.361 157.538" stroke="#41BFB3" stroke-width="11.216" stroke-linecap="round" stroke-linejoin="round"/>
</svg>
