<svg width="18" height="20" viewBox="0 0 18 20" fill="none" xmlns="http://www.w3.org/2000/svg">
<path d="M7.89095 0.743147C8.46351 0.201829 9.35912 0.201829 9.93168 0.743147L17.1254 7.54447C17.5704 7.96529 17.8226 8.5508 17.8226 9.16331V17.4349C17.8226 18.6652 16.8252 19.6627 15.5948 19.6627H13.367C12.1366 19.6627 11.1391 18.6652 11.1391 17.4349V13.7218C11.1391 13.3117 10.8067 12.9792 10.3965 12.9792H7.4261C7.01597 12.9792 6.68349 13.3117 6.68349 13.7218V17.4349C6.68349 18.6652 5.68601 19.6627 4.45566 19.6627H2.22783C0.997473 19.6627 0 18.6652 0 17.4349V9.16331C0 8.5508 0.25219 7.96529 0.697309 7.54447L7.89095 0.743147Z" fill="#41BFB3"/>
</svg>
