<svg width="165" height="165" viewBox="0 0 165 165" fill="none" xmlns="http://www.w3.org/2000/svg">
<path fill-rule="evenodd" clip-rule="evenodd" d="M52.4735 54.7192C51.8252 48.8841 56.3927 43.7808 62.2639 43.7808H96.2613C102.131 43.7808 106.701 48.883 106.052 54.7193C106.052 54.7192 106.052 54.7193 106.052 54.7193M102.944 82.6932L106.052 54.7193L102.944 82.6932ZM102.944 82.6932L101.12 99.1109C100.786 102.115 98.0801 104.279 95.0761 103.946C92.0722 103.612 89.9076 100.906 90.2414 97.9022L92.0656 81.4845L95.0389 54.7259H63.4868L69.5674 109.452H71.966C74.9884 109.452 77.4386 111.902 77.4386 114.924C77.4386 117.947 74.9884 120.397 71.966 120.397H68.5876C63.5683 120.397 59.3517 116.623 58.7974 111.634L52.4735 54.7192M95.174 53.5104C95.174 53.5104 95.174 53.5104 95.174 53.5104V53.5104Z" fill="#41BFB3"/>
<path fill-rule="evenodd" clip-rule="evenodd" d="M0.82251 23.7145C0.82251 10.6174 11.4399 0 24.537 0C37.6342 0 48.2515 10.6174 48.2515 23.7145C48.2515 36.8116 37.6342 47.429 24.537 47.429C11.4399 47.429 0.82251 36.8116 0.82251 23.7145ZM24.537 10.9452C17.4847 10.9452 11.7677 16.6622 11.7677 23.7145C11.7677 30.7668 17.4847 36.4839 24.537 36.4839C31.5893 36.4839 37.3064 30.7668 37.3064 23.7145C37.3064 16.6622 31.5893 10.9452 24.537 10.9452Z" fill="#41BFB3"/>
<path fill-rule="evenodd" clip-rule="evenodd" d="M20.217 20.3547C22.0726 17.9689 25.5109 17.5391 27.8966 19.3947L60.7321 44.9334C63.1179 46.789 63.5476 50.2273 61.6921 52.6131C59.8365 54.9988 56.3982 55.4286 54.0124 53.573L21.177 28.0343C18.7912 26.1787 18.3614 22.7404 20.217 20.3547Z" fill="#41BFB3"/>
<path fill-rule="evenodd" clip-rule="evenodd" d="M65.2954 100.56C67.1834 102.92 66.8007 106.364 64.4406 108.252L27.9559 137.439C25.5957 139.327 22.1519 138.945 20.2638 136.585C18.3758 134.224 18.7585 130.781 21.1186 128.893L57.6033 99.7055C59.9634 97.8174 63.4073 98.2001 65.2954 100.56Z" fill="#41BFB3"/>
<path fill-rule="evenodd" clip-rule="evenodd" d="M138.309 20.3547C140.164 22.7404 139.734 26.1787 137.349 28.0343L104.513 53.573C102.127 55.4286 98.689 54.9988 96.8335 52.6131C94.9779 50.2273 95.4077 46.789 97.7934 44.9334L130.629 19.3947C133.015 17.5391 136.453 17.9689 138.309 20.3547Z" fill="#41BFB3"/>
<path fill-rule="evenodd" clip-rule="evenodd" d="M0.82251 133.166C0.82251 120.069 11.4399 109.452 24.537 109.452C37.6342 109.452 48.2515 120.069 48.2515 133.166C48.2515 146.263 37.6342 156.881 24.537 156.881C11.4399 156.881 0.82251 146.263 0.82251 133.166ZM24.537 120.397C17.4847 120.397 11.7677 126.114 11.7677 133.166C11.7677 140.218 17.4847 145.936 24.537 145.936C31.5893 145.936 37.3064 140.218 37.3064 133.166C37.3064 126.114 31.5893 120.397 24.537 120.397Z" fill="#41BFB3"/>
<path fill-rule="evenodd" clip-rule="evenodd" d="M110.274 23.7145C110.274 10.6173 120.892 0 133.989 0C147.086 0 157.703 10.6173 157.703 23.7145C157.703 36.8117 147.086 47.429 133.989 47.429C120.892 47.429 110.274 36.8117 110.274 23.7145ZM133.989 10.9452C126.936 10.9452 121.219 16.6622 121.219 23.7145C121.219 30.7668 126.936 36.4839 133.989 36.4839C141.041 36.4839 146.758 30.7668 146.758 23.7145C146.758 16.6622 141.041 10.9452 133.989 10.9452Z" fill="#41BFB3"/>
<path fill-rule="evenodd" clip-rule="evenodd" d="M159.528 124.045C162.55 124.045 165 126.495 165 129.518V144.111C165 147.134 162.55 149.584 159.528 149.584C156.505 149.584 154.055 147.134 154.055 144.111V129.518C154.055 126.495 156.505 124.045 159.528 124.045Z" fill="#41BFB3"/>
<path fill-rule="evenodd" clip-rule="evenodd" d="M101.153 124.045C104.175 124.045 106.626 126.495 106.626 129.518V144.111C106.626 147.134 104.175 149.584 101.153 149.584C98.1306 149.584 95.6804 147.134 95.6804 144.111V129.518C95.6804 126.495 98.1306 124.045 101.153 124.045Z" fill="#41BFB3"/>
<path fill-rule="evenodd" clip-rule="evenodd" d="M92.0326 120.397V153.232H139.462V120.397H92.0326ZM81.0874 119.302C81.0874 113.862 85.4975 109.452 90.938 109.452H140.556C145.997 109.452 150.407 113.862 150.407 119.302V154.327C150.407 159.767 145.997 164.177 140.556 164.177H90.938C85.4975 164.177 81.0874 159.767 81.0874 154.327V119.302Z" fill="#41BFB3"/>
</svg>
