<svg width="20" height="18" viewBox="0 0 20 18" fill="none" xmlns="http://www.w3.org/2000/svg">
<path d="M18.9919 2.3357L14.629 0.372396H14.5745H14.4436H14.3127H14.04H13.9309H13.7891H13.7346L9.81891 2.12846L5.90321 0.372396H5.84867L5.71778 0.274231H5.5869H5.31422H5.20515H5.06335L0.700457 2.23753C0.482845 2.32092 0.29766 2.47181 0.172039 2.66809C0.0464181 2.86437 -0.0130345 3.09573 0.0023937 3.32826V16.6351C0.00269772 16.8176 0.0487893 16.9971 0.136446 17.1572C0.224103 17.3172 0.350523 17.4527 0.504127 17.5513C0.679682 17.6647 0.884122 17.7253 1.09312 17.7258C1.24745 17.7251 1.39987 17.6916 1.54031 17.6276L5.45601 15.8716L9.37171 17.6276H9.42625C9.54917 17.6851 9.68321 17.7149 9.81891 17.7149C9.9546 17.7149 10.0886 17.6851 10.2116 17.6276H10.2661L14.1818 15.8716L18.0975 17.6276C18.2379 17.6916 18.3904 17.7251 18.5447 17.7258C18.7537 17.7253 18.9581 17.6647 19.1337 17.5513C19.2873 17.4527 19.4137 17.3172 19.5014 17.1572C19.589 16.9971 19.6351 16.8176 19.6354 16.6351V3.32826C19.635 3.11845 19.574 2.91321 19.4599 2.73716C19.3458 2.56111 19.1833 2.42172 18.9919 2.3357ZM6.54674 3.05558L8.72818 4.02632V14.9336L6.54674 13.9628V3.05558ZM17.454 14.9445L15.2725 13.9737V3.06648L17.454 4.03723V14.9445Z" fill="#41BFB3"/>
</svg>
