<svg width="16" height="17" viewBox="0 0 16 17" fill="none" xmlns="http://www.w3.org/2000/svg">
<path d="M2.18197 0.500205C1.99588 0.500205 1.80959 0.571089 1.66778 0.713267L0.213267 2.16778C-0.0710891 2.45213 -0.0710891 2.91253 0.213267 3.19616L5.51711 8.5L0.213267 13.8038C-0.0710891 14.0882 -0.0710891 14.5486 0.213267 14.8322L1.66778 16.2867C1.95213 16.5711 2.41253 16.5711 2.69616 16.2867L8 10.9829L13.3038 16.2867C13.5875 16.5711 14.0486 16.5711 14.3322 16.2867L15.7867 14.8322C16.0711 14.5479 16.0711 14.0875 15.7867 13.8038L10.4829 8.5L15.7867 3.19616C16.0711 2.91253 16.0711 2.4514 15.7867 2.16778L14.3322 0.713267C14.0479 0.428911 13.5875 0.428911 13.3038 0.713267L8 6.01711L2.69616 0.713267C2.55398 0.571089 2.36805 0.500205 2.18197 0.500205Z" fill="#EFEFEF"/>
</svg>
